<?xml version="1.0" encoding="utf-8"?>
<!-- Generator: Adobe Illustrator 22.1.0, SVG Export Plug-In . SVG Version: 6.00 Build 0)  -->
<svg version="1.1" id="Layer_1" xmlns="http://www.w3.org/2000/svg" xmlns:xlink="http://www.w3.org/1999/xlink" x="0px" y="0px"
	 viewBox="0 0 19.5 20" style="enable-background:new 0 0 19.5 20;" xml:space="preserve">
<style type="text/css">
	.st0{fill:#B4DB1F;}
	.st1{fill:#B8B5B8;}
	.st2{fill:#979496;}
	.st3{fill:#CBC7C7;}
	.st4{fill:#747478;}
</style>
<g>
	<path class="st0" d="M4.7,7C5.8,7.8,7,8.5,8.2,9.3c2-3.1,3.9-6.2,5.9-9.3c1.1,0.7,2.1,1.3,3.1,2c-2.6,4.2-5.2,8.3-7.8,12.4
		c-1.9-1.2-3.8-2.4-5.6-3.6c-0.2-0.1-0.2-0.2-0.2-0.4C3.6,9.3,3.9,8.2,4.4,7.2C4.5,7.2,4.5,7,4.7,7z"/>
	<path class="st1" d="M18,15.5c-0.5,0.9-1.1,1.5-1.8,2.1c-1.1,1-2.3,1.6-3.7,2c-0.8,0.2-1.5,0.3-2.3,0.4c-1.8,0.1-3.5-0.3-5.1-1.2
		c-0.2-0.1-0.4-0.3-0.6-0.4c0.3-0.6,0.7-1.2,1.1-1.7C5.8,16.4,6,16,6.3,15.6c0.1-0.1,0.1-0.2,0.3-0.3c1,0.6,2.1,1,3.3,1
		c2.1-0.1,3.8-0.9,5-2.7c0.1-0.1,0.1-0.1,0.1-0.2c0.2-0.1,0.3,0,0.4,0.1c0.8,0.5,1.7,1.1,2.5,1.6C17.8,15.2,18,15.3,18,15.5z"/>
	<path class="st2" d="M6.5,15.4c-0.6,1-1.2,2-1.8,3c-0.1,0.1-0.1,0.1-0.2,0.2c-1.8-1.2-3.1-2.8-3.9-4.7C0.2,12.7,0,11.5,0,10.3
		C0,8.4,0.5,6.6,1.6,5C2.2,5.3,2.7,5.7,3.3,6C3.7,6.3,4,6.5,4.4,6.8C4.5,6.8,4.6,6.9,4.7,7v0.1C4.2,7.8,3.9,8.6,3.8,9.5
		c-0.1,0.5-0.1,0.9,0,1.4c0.1,1.3,0.6,2.3,1.3,3.3C5.5,14.6,6,15,6.5,15.4z"/>
	<path class="st3" d="M18,15.5c-0.2-0.3-0.5-0.4-0.7-0.5c-0.7-0.5-1.5-0.9-2.2-1.4c-0.1-0.1-0.2-0.1-0.3-0.1
		c1.3-2.1,1.3-4.3,0.1-6.4c0.7-1.1,1.4-2.2,2.1-3.3c0.8,0.9,1.4,1.9,1.8,2.9c0.4,1,0.6,2.1,0.7,3.2C19.6,11.9,19,13.8,18,15.5
		C18,15.5,18,15.5,18,15.5z"/>
	<path class="st4" d="M4.7,7c-1-0.6-2-1.2-3-1.9C1.7,5.1,1.6,5.1,1.6,5C2.7,3.2,4.3,2,6.2,1.2c1.9-0.8,3.9-0.9,5.9-0.4
		c0.1,0,0.1,0.1,0.2,0.1c0.1,0,0.1,0.1,0.1,0.1C11.7,2,11,3.1,10.4,4.2C7.9,4.1,6,5,4.7,7z"/>
</g>
</svg>
